<svg xmlns="http://www.w3.org/2000/svg" width="112" height="56" fill="none"><path fill="#D60000" fill-rule="evenodd" d="M12.53 56h86.94c6.92 0 12.53-5.61 12.53-12.53V12.53C112 5.61 106.39 0 99.47 0H12.53C5.61 0 0 5.61 0 12.53v30.94C0 50.39 5.61 56 12.53 56Zm73.663-12.601v-6.506h1.832v2.314h1.428c.572 0 1.293.164 1.744.66.286.3.496.752.496 1.398 0 .857-.375 1.383-.69 1.653-.482.42-1.023.48-1.459.48h-3.351Zm-73.664 0v-6.507h1.834v4.013l3.006-4.013h1.833v6.507H17.37v-4.013l-3.006 4.013h-1.834Zm10.135.001h-1.833v-6.507h1.833v2.3h2.555v-2.3h1.833V43.4H25.22v-2.645h-2.555V43.4Zm8.929-6.719c.676 0 1.232.136 1.758.391h.002v1.802c-.391-.36-.872-.571-1.504-.571-1.217 0-1.833.887-1.833 1.833 0 1.068.797 1.85 1.894 1.85.405 0 .946-.12 1.442-.572v1.789c-.36.18-.931.405-1.683.405-1.021 0-1.924-.39-2.51-.946-.496-.465-1.037-1.277-1.037-2.494 0-1.143.466-2.06 1.127-2.646.796-.705 1.712-.84 2.344-.84Zm8.145.21v1.564h-1.805V43.4H36.1v-4.945h-1.803v-1.563h5.44Zm4.883 6.718c-.45 0-1.368-.075-2.089-1.051v4.284h-1.833v-9.95h1.833v.842c.286-.406.916-1.052 2.119-1.052.571 0 1.488.136 2.224.872.48.48.977 1.292.977 2.585 0 1.472-.646 2.269-1.021 2.63-.497.464-1.248.84-2.21.84Zm.783-4.838c-.33-.301-.812-.466-1.248-.466-.482 0-.857.135-1.188.437-.406.346-.616.796-.616 1.398 0 .6.24 1.096.601 1.412.24.21.632.436 1.203.436.6 0 .991-.241 1.232-.466.39-.362.571-.903.571-1.383s-.195-1.022-.555-1.368Zm5.111 8.07h-2.074l2.39-4.418-3.096-5.53h2.134l2.014 3.697 1.803-3.697h2.074l-5.245 9.949Zm6.716-3.441h-1.834l1.185-6.507h1.353l1.789 3.742 1.789-3.742h1.353l1.187 6.507h-1.834l-.54-3.531-1.623 3.531h-.661l-1.623-3.531-.541 3.531Zm10.947-1.232c.69 0 1.217-.33 1.517-.857l1.684.271c-.195.482-.932 2.03-3.201 2.03-1.053 0-1.85-.302-2.496-.918-.72-.676-1.021-1.517-1.021-2.54 0-1.292.526-2.089.992-2.555.766-.751 1.668-.917 2.45-.917 1.322 0 2.09.527 2.54 1.068.692.826.782 1.848.782 2.554v.15h-4.87c0 .391.105.812.316 1.098.195.27.6.616 1.307.616Zm-.03-4.193c-.677 0-1.384.435-1.534 1.307h3.081c-.15-.886-.871-1.307-1.547-1.307ZM74.44 43.4h-1.834v-6.507h1.834v2.3h2.555v-2.3h1.833V43.4h-1.833v-2.645H74.44V43.4Zm10.79-6.508v1.563h-1.803V43.4h-1.834v-4.945h-1.803v-1.563h5.44Zm2.795 3.757v1.307h.857c.196 0 .482-.014.677-.164.12-.091.24-.271.24-.527 0-.24-.12-.39-.24-.466-.196-.135-.467-.15-.632-.15h-.902Zm4.36 2.75v-6.507h1.833v6.507h-1.834Zm.824-12.384a6.264 6.264 0 1 0-.001-12.527 6.264 6.264 0 0 0 0 12.527Zm.999-2.794h1.171l2.962-5.617H97.17l-1.018 2.088-1.137-2.088H93.81l1.748 3.122-1.35 2.495Zm-6.33-2.495c0 .373.29.662.663.662a.653.653 0 0 0 .662-.662.653.653 0 0 0-.662-.662.653.653 0 0 0-.662.662Zm3.058.077.001.001v2.417h-1.035v-5.617h1.035v.475c.162-.229.518-.594 1.197-.594.322 0 .84.076 1.255.492.271.27.551.73.551 1.46 0 .831-.365 1.28-.577 1.484-.28.264-.704.475-1.247.475-.254 0-.771-.042-1.179-.592v-.001Zm.916-2.402c.247 0 .518.093.705.264.204.194.313.5.313.771 0 .272-.101.577-.322.78a.98.98 0 0 1-.696.264c-.322 0-.543-.128-.678-.246a1.043 1.043 0 0 1-.34-.798c0-.34.12-.593.349-.788a.937.937 0 0 1 .67-.247Zm-56.292-.956v-3.252c-.949-.461-1.95-.704-3.17-.703-1.138 0-2.79.244-4.227 1.518-1.193 1.056-2.033 2.709-2.033 4.769 0 2.194.975 3.658 1.869 4.498 1.057 1.002 2.683 1.706 4.526 1.706a6.707 6.707 0 0 0 3.035-.73v-3.225c-.895.812-1.87 1.029-2.602 1.029-1.979 0-3.415-1.41-3.415-3.333 0-1.708 1.111-3.306 3.307-3.306 1.139 0 2.006.378 2.71 1.029Zm-12.383 6.693c1.247-1.111 1.545-2.602 1.545-3.658 0-.949-.216-2.358-1.302-3.387-.46-.433-1.164-.948-2.357-1.138.488-.27 2.033-1.22 2.033-3.55 0-1.518-.623-2.927-1.68-3.74-1.464-1.138-3.416-1.138-4.418-1.138h-4.47v18.075h6.07c1.571 0 3.224-.271 4.58-1.464Zm-6.124-9.105h-1.002V15.4h1.03c1.436 0 2.71.623 2.71 2.276 0 2.303-2.197 2.357-2.738 2.357Zm2.71 3.063c1.139.515 1.328 1.49 1.328 2.06 0 .704-.243 1.57-1.111 2.087-.785.46-1.762.487-2.412.487h-1.517v-4.986h1.3c.758 0 1.653 0 2.412.352Zm20.901 2.195h8.78v-.271c0-1.274-.162-3.116-1.408-4.607-.813-.975-2.195-1.924-4.58-1.924-1.409 0-3.035.298-4.417 1.653-.84.84-1.789 2.276-1.789 4.607 0 1.842.542 3.36 1.843 4.58 1.164 1.11 2.6 1.652 4.498 1.652 4.092 0 5.42-2.79 5.772-3.658l-3.035-.488c-.542.949-1.49 1.545-2.737 1.545-1.274 0-2.006-.623-2.358-1.111-.38-.516-.569-1.274-.569-1.978Zm2.873-4.472c1.22 0 2.52.759 2.79 2.357h-5.554c.27-1.571 1.544-2.357 2.764-2.357Z" clip-rule="evenodd"/></svg>
